# xmcd
#
# Track frame offsets: 
#        150
#        12827
#        22661
#        34004
#        44604
#        53243
#        63932
#        77480
#        89238
#        96968
#        106832
#        116991
#        129741
#        139546
#        148391
#        159311
#        168903
#        181151
#        194935
#        204860
#        216791
#        225345
#        235949
#        251420
#        263563
#        271572
#        282234
#        295186
#        308150
#        315196
#        323738
#        335352
#        344945
#
# Disc length: 4768 seconds
#
# Revision: 0
# Processed by: cddbd v1.5.2PL0 Copyright (c) Steve Scherf et al.
# Submitted via: ExactAudioCopy v0.99pb5
#
DISCID=d7129e21
DTITLE=Elvis Presley  - FTD 64-1 - Pot Luck - CD 1  
DYEAR=1900
DGENRE=
TTITLE0=Kiss Me Quick
TTITLE1=Just For Old Times Sake
TTITLE2=Gonna Get Back Home Somehow
TTITLE3=Easy Question
TTITLE4=Steppin' Out Of Line
TTITLE5=I'm Yours
TTITLE6=Something Blue
TTITLE7=Suspicion
TTITLE8=I Feel That I've Known You Forever
TTITLE9=Night Rider
TTITLE10=Fountain Of Love
TTITLE11=That's Someone You Never Forget
TTITLE12=She's Not You
TTITLE13=Just Tell Her Jim Said Hello
TTITLE14=You'll Be Gone
TTITLE15=For The Millionth And The Last Time
TTITLE16=I Met Her Today
TTITLE17=Kiss Me Quick (Take 1)
TTITLE18=Just For Old Times Sake (Take 1)
TTITLE19=Gonna Get Back Home Somehow (Take 1)
TTITLE20=Easy Question (Take 2)
TTITLE21=I'm Yours (Take 1)
TTITLE22=Something Blue (Take 1)
TTITLE23=Suspicion (Take 1)
TTITLE24=I Feel That I've Known You Forever (Take 1)
TTITLE25=Night Rider (Take 1)
TTITLE26=Fountain Of Love (Takes 1-2)
TTITLE27=That's Someone You Never Forget (Take 1)
TTITLE28=She's Not You (Take 1)
TTITLE29=Just Tell Her Jim Said Hello (Take 1)
TTITLE30=You'll Be Gone (Take 1)
TTITLE31=For The Millionth And The Last Time (Take 1)
TTITLE32=I Met Her Today (Take 1)
EXTD=
EXTT0=
EXTT1=
EXTT2=
EXTT3=
EXTT4=
EXTT5=
EXTT6=
EXTT7=
EXTT8=
EXTT9=
EXTT10=
EXTT11=
EXTT12=
EXTT13=
EXTT14=
EXTT15=
EXTT16=
EXTT17=
EXTT18=
EXTT19=
EXTT20=
EXTT21=
EXTT22=
EXTT23=
EXTT24=
EXTT25=
EXTT26=
EXTT27=
EXTT28=
EXTT29=
EXTT30=
EXTT31=
EXTT32=
PLAYORDER=
